<svg xmlns="http://www.w3.org/2000/svg" viewBox="0 0 32 32" width="32" height="32">
  <!-- Background circle -->
  <circle cx="16" cy="16" r="15" fill="#D2691E" stroke="#8B4513" stroke-width="1"/>
  
  <!-- Chef hat -->
  <path d="M8 12 Q8 8, 12 8 Q14 6, 16 8 Q18 6, 20 8 Q24 8, 24 12 L24 14 L8 14 Z" fill="white" stroke="#8B4513" stroke-width="0.5"/>
  
  <!-- Pasta plate -->
  <ellipse cx="16" cy="22" rx="7" ry="3" fill="#F5F5DC" stroke="#8B4513" stroke-width="0.5"/>
  
  <!-- Fork -->
  <rect x="6" y="18" width="1.5" height="6" rx="0.5" fill="#C0C0C0"/>
  <rect x="5.5" y="16" width="2.5" height="2" rx="0.5" fill="#C0C0C0"/>
  <rect x="5" y="16" width="0.5" height="1.5" fill="#C0C0C0"/>
  <rect x="6.25" y="16" width="0.5" height="1.5" fill="#C0C0C0"/>
  <rect x="7.5" y="16" width="0.5" height="1.5" fill="#C0C0C0"/>
  
  <!-- Spoon -->
  <rect x="24.5" y="18" width="1.5" height="6" rx="0.5" fill="#C0C0C0"/>
  <ellipse cx="25.25" cy="17" rx="1.5" ry="2" fill="#C0C0C0"/>
  
  <!-- Wine glass -->
  <path d="M12 24 L12 26 L11 28 L13 28 L12 26" fill="none" stroke="#8B4513" stroke-width="0.5"/>
  <path d="M10 24 Q10 22, 12 22 Q14 22, 14 24" fill="none" stroke="#8B4513" stroke-width="0.5"/>
  
  <!-- Bread loaf -->
  <ellipse cx="20" cy="24" rx="2" ry="1" fill="#D2691E" stroke="#8B4513" stroke-width="0.5"/>
  <line x1="18" y1="24" x2="22" y2="24" stroke="#8B4513" stroke-width="0.3"/>
</svg>